<svg width="192" height="192" viewBox="0 0 192 192" fill="none" xmlns="http://www.w3.org/2000/svg">
<rect width="192" height="192" fill="black"/>
<g clip-path="url(#clip0_2030_83)">
<path d="M96.5 183C144.273 183 183 144.273 183 96.5C183 48.7274 144.273 10 96.5 10C48.7274 10 10 48.7274 10 96.5C10 144.273 48.7274 183 96.5 183Z" fill="#F2F2F2"/>
<mask id="mask0_2030_83" style="mask-type:luminance" maskUnits="userSpaceOnUse" x="10" y="10" width="173" height="173">
<path d="M96.5 183C144.273 183 183 144.273 183 96.5C183 48.7274 144.273 10 96.5 10C48.7274 10 10 48.7274 10 96.5C10 144.273 48.7274 183 96.5 183Z" fill="white"/>
</mask>
<g mask="url(#mask0_2030_83)">
<path d="M84.2101 81.6206C84.2101 81.6206 87.9552 109.852 82.1935 113.022C76.4318 116.192 116.475 116.479 116.475 116.479C116.475 116.479 107.545 91.9917 111.578 84.5008L84.2101 81.6206Z" fill="#FFB9B9"/>
<path d="M99.0471 96.6245C110.025 96.6245 118.925 87.725 118.925 76.7468C118.925 65.7687 110.025 56.8691 99.0471 56.8691C88.069 56.8691 79.1694 65.7687 79.1694 76.7468C79.1694 87.725 88.069 96.6245 99.0471 96.6245Z" fill="#FFB9B9"/>
<path d="M145.716 116.622L142.386 131.787L135.344 163.87L135.133 165.627L132.703 185.968L131.087 199.481L130.003 208.558C123.412 211.945 118.636 214.283 118.636 214.283C118.636 214.283 118.225 212.224 117.563 209.588C112.938 210.975 104.38 213.275 97.1272 213.735C99.7681 216.678 58.9807 141.799 57.4156 131.787C56.1559 123.729 55.2098 116.919 55.0098 115.471C54.9828 115.281 54.9692 115.184 54.9692 115.184L85.3605 101.755C87.5203 106.764 97.6056 108.269 97.6056 108.269C105.961 107.694 112.511 103.288 112.511 103.288L145.716 116.622Z" fill="#F36C3F"/>
<path d="M115.907 57.9452L119.623 56.4585C119.623 56.4585 111.852 47.9029 101.04 48.6465L104.081 45.2987C104.081 45.2987 96.6476 42.3228 89.8897 50.1346C86.3376 54.2409 82.2275 59.0678 79.6652 64.5052H75.6846L77.3459 68.163L71.5317 71.8209L77.4994 71.1638C77.1437 73.1668 77.0891 75.2118 77.3372 77.2309C77.5931 79.2509 78.6238 81.0925 80.2117 82.3669C80.2117 82.3669 84.8211 72.8249 84.8211 71.3381V75.0579C84.8211 75.0579 88.5379 71.7101 88.5379 69.4781L90.5653 72.082L91.5789 67.9903L104.08 72.082L102.053 68.7342L109.824 69.8501L106.783 65.7583C106.783 65.7583 115.568 70.5942 115.906 74.686C116.244 78.7777 118.815 82.655 118.815 82.655C118.815 82.655 125.705 63.525 115.907 57.9452Z" fill="#090814"/>
<path d="M167.322 186.338C165.297 188.533 160.28 191.839 154.198 195.418C151.936 196.748 149.527 198.119 147.07 199.481C141.207 202.733 135.068 205.955 130.003 208.558C123.412 211.945 118.636 214.283 118.636 214.283C118.636 214.283 118.225 212.223 117.563 209.588C116.676 206.06 115.341 201.5 113.949 199.481C113.9 199.411 113.851 199.346 113.803 199.281C113.397 198.748 112.989 198.438 112.586 198.438L132.703 185.968L141.396 180.578L135.133 165.627L127.278 146.873L132.019 131.787L136.785 116.622H145.716C145.716 116.622 148.673 123.077 152.455 132.079C153.02 133.425 153.604 134.828 154.198 136.276C161.978 155.198 171.678 181.62 167.322 186.338Z" fill="#F36C3F"/>
<path d="M77.4403 199.302C76.7067 199.299 75.9742 199.359 75.2508 199.481C69.0363 200.548 67.2036 206.174 66.6819 209.942C66.5149 211.092 66.4515 212.256 66.4927 213.418L61.0026 209.196L59.0023 207.658C54.188 205.979 49.8982 202.997 46.1787 199.481C42.9519 196.376 40.0575 192.943 37.5422 189.238C35.0369 185.587 32.8035 181.756 30.8601 177.777C30.3178 176.667 30.0263 175.451 30.0062 174.215C29.9862 172.98 30.238 171.755 30.7438 170.627L37.5422 155.476L47.4789 133.332C47.551 132.805 47.6312 132.29 47.7195 131.786C49.69 120.487 54.9692 115.47 54.9692 115.47H59.0023L61.7 131.786L65.0519 152.057L62.7029 159.718L57.275 177.41L62.4623 183.043L77.4403 199.302Z" fill="#F36C3F"/>
<path d="M150.885 139.411H105.894V138.483H85.4927V139.411H40.3156C39.5087 139.411 38.7348 139.731 38.1642 140.302C37.5935 140.872 37.2727 141.646 37.2725 142.453V204.061C37.2725 204.461 37.3512 204.857 37.5041 205.226C37.6571 205.595 37.8813 205.931 38.1639 206.214C38.4465 206.496 38.782 206.72 39.1512 206.873C39.5205 207.026 39.9162 207.105 40.3159 207.105H150.885C151.285 207.105 151.681 207.026 152.05 206.873C152.419 206.72 152.755 206.496 153.037 206.214C153.32 205.931 153.544 205.595 153.697 205.226C153.85 204.857 153.929 204.461 153.929 204.061V142.453C153.929 142.054 153.85 141.658 153.697 141.289C153.544 140.919 153.32 140.584 153.037 140.301C152.755 140.019 152.419 139.794 152.05 139.641C151.681 139.488 151.285 139.41 150.885 139.41V139.411Z" fill="#090814"/>
<path d="M96.6201 167.677C100.352 167.677 103.378 164.652 103.378 160.919C103.378 157.187 100.352 154.162 96.6201 154.162C92.8879 154.162 89.8623 157.187 89.8623 160.919C89.8623 164.652 92.8879 167.677 96.6201 167.677Z" fill="#F2F2F2"/>
</g>
</g>
<defs>
<clipPath id="clip0_2030_83">
<rect width="173" height="173" fill="white" transform="translate(10 10)"/>
</clipPath>
</defs>
</svg>
