<svg width="512" height="512" viewBox="0 0 512 512" fill="none" xmlns="http://www.w3.org/2000/svg">
<rect width="512" height="512" fill="black"/>
<g clip-path="url(#clip0_2030_85)">
<path d="M256 490C385.235 490 490 385.235 490 256C490 126.765 385.235 22 256 22C126.765 22 22 126.765 22 256C22 385.235 126.765 490 256 490Z" fill="#F2F2F2"/>
<mask id="mask0_2030_85" style="mask-type:luminance" maskUnits="userSpaceOnUse" x="22" y="22" width="468" height="468">
<path d="M256 490C385.235 490 490 385.235 490 256C490 126.765 385.235 22 256 22C126.765 22 22 126.765 22 256C22 385.235 126.765 490 256 490Z" fill="white"/>
</mask>
<g mask="url(#mask0_2030_85)">
<path d="M222.753 215.749C222.753 215.749 232.885 292.119 217.298 300.695C201.712 309.271 310.038 310.047 310.038 310.047C310.038 310.047 285.878 243.804 296.789 223.54L222.753 215.749Z" fill="#FFB9B9"/>
<path d="M262.891 256.337C292.589 256.337 316.664 232.262 316.664 202.564C316.664 172.866 292.589 148.791 262.891 148.791C233.193 148.791 209.118 172.866 209.118 202.564C209.118 232.262 233.193 256.337 262.891 256.337Z" fill="#FFB9B9"/>
<path d="M389.139 310.435L380.13 351.458L361.081 438.25L360.51 443.003L353.936 498.029L349.564 534.585L346.631 559.14C328.803 568.303 315.882 574.628 315.882 574.628C315.882 574.628 314.771 569.056 312.979 561.926C300.467 565.677 277.316 571.9 257.697 573.143C264.841 581.107 154.503 378.543 150.269 351.458C146.861 329.659 144.302 311.239 143.761 307.319C143.687 306.808 143.651 306.544 143.651 306.544L225.865 270.216C231.708 283.766 258.991 287.839 258.991 287.839C281.594 286.281 299.312 274.362 299.312 274.362L389.139 310.435Z" fill="#F36C3F"/>
<path d="M308.5 151.7L318.554 147.678C318.554 147.678 297.531 124.534 268.282 126.545L276.509 117.489C276.509 117.489 256.4 109.438 238.118 130.571C228.509 141.679 217.39 154.737 210.459 169.446H199.691L204.185 179.342L188.456 189.237L204.6 187.459C203.638 192.878 203.49 198.41 204.161 203.872C204.853 209.337 207.642 214.318 211.937 217.766C211.937 217.766 224.407 191.953 224.407 187.931V197.994C224.407 197.994 234.461 188.937 234.461 182.899L239.946 189.943L242.688 178.874L276.507 189.943L271.022 180.887L292.045 183.905L283.819 172.836C283.819 172.836 307.584 185.918 308.498 196.987C309.411 208.056 316.367 218.545 316.367 218.545C316.367 218.545 335.007 166.795 308.5 151.7Z" fill="#090814"/>
<path d="M447.588 499.031C442.111 504.969 428.539 513.912 412.086 523.594C405.965 527.192 399.45 530.899 392.803 534.585C376.942 543.382 360.335 552.098 346.632 559.14C328.804 568.303 315.882 574.628 315.882 574.628C315.882 574.628 314.771 569.056 312.979 561.926C310.581 552.383 306.969 540.047 303.203 534.585C303.071 534.395 302.939 534.219 302.808 534.044C301.711 532.603 300.607 531.762 299.517 531.762L353.937 498.029L377.454 483.448L360.511 443.003L339.261 392.269L352.087 351.458L364.979 310.435H389.139C389.139 310.435 397.139 327.897 407.369 352.247C408.897 355.889 410.477 359.684 412.086 363.604C433.131 414.791 459.371 486.267 447.588 499.031Z" fill="#F36C3F"/>
<path d="M204.44 534.101C202.455 534.093 200.474 534.255 198.517 534.584C181.705 537.472 176.748 552.689 175.336 562.883C174.884 565.996 174.713 569.143 174.824 572.287L159.973 560.865L154.561 556.704C141.538 552.163 129.933 544.097 119.871 534.584C111.142 526.184 103.312 516.899 96.5074 506.876C89.7301 496.999 83.6883 486.636 78.4309 475.871C76.9641 472.868 76.1755 469.578 76.1212 466.236C76.0668 462.893 76.748 459.58 78.1165 456.53L96.5074 415.543L123.388 355.639C123.583 354.213 123.8 352.819 124.039 351.457C129.37 320.89 143.651 307.318 143.651 307.318H154.561L161.859 351.457L170.927 406.293L164.572 427.017L149.889 474.877L163.921 490.116L204.44 534.101Z" fill="#F36C3F"/>
<path d="M403.123 372.082H281.412V369.573H226.223V372.082H104.01C101.827 372.082 99.7336 372.949 98.1898 374.492C96.646 376.036 95.7784 378.129 95.7776 380.312V546.975C95.7776 548.056 95.9905 549.127 96.4043 550.125C96.818 551.124 97.4245 552.032 98.189 552.796C98.9535 553.561 99.8611 554.167 100.86 554.581C101.859 554.995 102.93 555.208 104.011 555.208H403.123C404.205 555.208 405.275 554.995 406.274 554.581C407.273 554.167 408.181 553.561 408.945 552.796C409.71 552.032 410.316 551.124 410.73 550.125C411.144 549.127 411.357 548.056 411.357 546.975V380.312C411.357 379.231 411.144 378.16 410.73 377.161C410.316 376.162 409.71 375.255 408.945 374.49C408.181 373.726 407.273 373.119 406.274 372.705C405.275 372.292 404.205 372.079 403.123 372.079V372.082Z" fill="#090814"/>
<path d="M256.325 448.548C266.422 448.548 274.606 440.363 274.606 430.267C274.606 420.17 266.422 411.985 256.325 411.985C246.229 411.985 238.044 420.17 238.044 430.267C238.044 440.363 246.229 448.548 256.325 448.548Z" fill="#F2F2F2"/>
</g>
</g>
<defs>
<clipPath id="clip0_2030_85">
<rect width="468" height="468" fill="white" transform="translate(22 22)"/>
</clipPath>
</defs>
</svg>
