<svg width="64" height="64" viewBox="0 0 64 64" fill="none" xmlns="http://www.w3.org/2000/svg">
<rect width="64" height="64" fill="black"/>
<g clip-path="url(#clip0_2030_87)">
<path d="M32.5 62C48.7924 62 62 48.7924 62 32.5C62 16.2076 48.7924 3 32.5 3C16.2076 3 3 16.2076 3 32.5C3 48.7924 16.2076 62 32.5 62Z" fill="#F2F2F2"/>
<mask id="mask0_2030_87" style="mask-type:luminance" maskUnits="userSpaceOnUse" x="3" y="3" width="59" height="59">
<path d="M32.5 62C48.7924 62 62 48.7924 62 32.5C62 16.2076 48.7924 3 32.5 3C16.2076 3 3 16.2076 3 32.5C3 48.7924 16.2076 62 32.5 62Z" fill="white"/>
</mask>
<g mask="url(#mask0_2030_87)">
<path d="M28.3088 27.4258C28.3088 27.4258 29.5861 37.0537 27.6211 38.1348C25.6562 39.216 39.3126 39.3138 39.3126 39.3138C39.3126 39.3138 36.2669 30.9627 37.6424 28.408L28.3088 27.4258Z" fill="#FFB9B9"/>
<path d="M33.3685 32.5431C37.1125 32.5431 40.1476 29.508 40.1476 25.764C40.1476 22.02 37.1125 18.9849 33.3685 18.9849C29.6245 18.9849 26.5894 22.02 26.5894 25.764C26.5894 29.508 29.6245 32.5431 33.3685 32.5431Z" fill="#FFB9B9"/>
<path d="M49.2844 39.3623L48.1487 44.534L45.7472 55.4758L45.6753 56.075L44.8465 63.0121L44.2953 67.6205L43.9256 70.7162C41.6781 71.8713 40.0491 72.6687 40.0491 72.6687C40.0491 72.6687 39.909 71.9663 39.6831 71.0674C38.1058 71.5404 35.1871 72.3249 32.7137 72.4816C33.6144 73.4855 19.7042 47.9486 19.1705 44.534C18.7409 41.7859 18.4182 39.4637 18.35 38.9696C18.3408 38.9051 18.3362 38.8719 18.3362 38.8719L28.7008 34.292C29.4374 36.0002 32.8769 36.5137 32.8769 36.5137C35.7264 36.3173 37.9601 34.8147 37.9601 34.8147L49.2844 39.3623Z" fill="#F36C3F"/>
<path d="M39.1188 19.3514L40.3863 18.8444C40.3863 18.8444 37.736 15.9265 34.0487 16.1802L35.0858 15.0384C35.0858 15.0384 32.5506 14.0235 30.2459 16.6876C29.0345 18.0881 27.6328 19.7343 26.7589 21.5886H25.4014L25.968 22.8361L23.9851 24.0836L26.0203 23.8595C25.899 24.5426 25.8804 25.24 25.965 25.9286C26.0523 26.6175 26.4038 27.2455 26.9453 27.6802C26.9453 27.6802 28.5173 24.426 28.5173 23.9189V25.1875C28.5173 25.1875 29.7849 24.0458 29.7849 23.2846L30.4763 24.1726L30.822 22.7772L35.0855 24.1726L34.3941 23.0309L37.0444 23.4114L36.0073 22.016C36.0073 22.016 39.0034 23.6652 39.1185 25.0607C39.2337 26.4561 40.1106 27.7784 40.1106 27.7784C40.1106 27.7784 42.4605 21.2543 39.1188 19.3514Z" fill="#090814"/>
<path d="M56.6534 63.1384C55.9629 63.8869 54.2519 65.0144 52.1777 66.235C51.4061 66.6885 50.5847 67.1559 49.7467 67.6205C47.7471 68.7296 45.6536 69.8284 43.926 70.7162C41.6784 71.8713 40.0495 72.6687 40.0495 72.6687C40.0495 72.6687 39.9094 71.9663 39.6835 71.0674C39.3811 69.8644 38.9257 68.3092 38.451 67.6205C38.4344 67.5966 38.4178 67.5744 38.4012 67.5523C38.2629 67.3707 38.1237 67.2647 37.9863 67.2647L44.8469 63.0121L47.8117 61.1739L45.6757 56.075L42.9967 49.679L44.6137 44.534L46.2389 39.3623H49.2848C49.2848 39.3623 50.2934 41.5637 51.5831 44.6336C51.7757 45.0927 51.9749 45.5711 52.1777 46.0653C54.8308 52.5184 58.1388 61.5293 56.6534 63.1384Z" fill="#F36C3F"/>
<path d="M25.9996 67.5598C25.7494 67.5589 25.4996 67.5792 25.2529 67.6207C23.1335 67.9848 22.5084 69.9032 22.3305 71.1883C22.2736 71.5808 22.252 71.9776 22.266 72.3739L20.3937 70.9339L19.7115 70.4094C18.0696 69.8369 16.6066 68.82 15.3381 67.6207C14.2377 66.5618 13.2505 65.3912 12.3927 64.1277C11.5383 62.8824 10.7766 61.576 10.1138 60.2189C9.92891 59.8403 9.8295 59.4255 9.82265 59.0042C9.8158 58.5828 9.90167 58.1651 10.0742 57.7806L12.3927 52.6135L15.7815 45.0615C15.8061 44.8817 15.8335 44.7059 15.8636 44.5342C16.5356 40.6807 18.336 38.9697 18.336 38.9697H19.7115L20.6315 44.5342L21.7746 51.4473L20.9735 54.0599L19.1224 60.0936L20.8915 62.0148L25.9996 67.5598Z" fill="#F36C3F"/>
<path d="M51.0474 47.1342H35.7034V46.8179H28.7458V47.1342H13.3386C13.0634 47.1342 12.7995 47.2435 12.6049 47.4381C12.4103 47.6326 12.3009 47.8965 12.3008 48.1717V69.1826C12.3008 69.319 12.3276 69.4539 12.3798 69.5799C12.4319 69.7058 12.5084 69.8202 12.6048 69.9166C12.7012 70.013 12.8156 70.0894 12.9415 70.1416C13.0674 70.1937 13.2024 70.2206 13.3387 70.2206H51.0474C51.1837 70.2206 51.3186 70.1937 51.4446 70.1416C51.5705 70.0894 51.6849 70.013 51.7813 69.9166C51.8777 69.8202 51.9541 69.7058 52.0063 69.5799C52.0585 69.4539 52.0853 69.319 52.0853 69.1826V48.1717C52.0853 48.0354 52.0585 47.9005 52.0063 47.7745C51.9541 47.6486 51.8777 47.5342 51.7813 47.4378C51.6849 47.3414 51.5705 47.265 51.4446 47.2128C51.3186 47.1606 51.1837 47.1338 51.0474 47.1338V47.1342Z" fill="#090814"/>
<path d="M32.5413 56.7739C33.8141 56.7739 34.8459 55.7421 34.8459 54.4692C34.8459 53.1964 33.8141 52.1646 32.5413 52.1646C31.2684 52.1646 30.2366 53.1964 30.2366 54.4692C30.2366 55.7421 31.2684 56.7739 32.5413 56.7739Z" fill="#F2F2F2"/>
</g>
</g>
<defs>
<clipPath id="clip0_2030_87">
<rect width="59" height="59" fill="white" transform="translate(3 3)"/>
</clipPath>
</defs>
</svg>
